# xmcd
#
# Track frame offsets: 
#        150
#        30140
#        41486
#        56915
#        75440
#        93598
#        115945
#
# Disc length: 1817 seconds
#
# Revision: 0
# Processed by: cddbd v1.5.2PL0 Copyright (c) Steve Scherf et al.
# Submitted via: ExactAudioCopy v0.99pb5
#
DISCID=4b071707
DTITLE=Los Potatos - Los Potatos
DYEAR=1900
DGENRE=Blues
TTITLE0=40 days and 40 nights
TTITLE1=Key to the highway
TTITLE2=Blues had a baby
TTITLE3=Crosseyed cat
TTITLE4=Help me
TTITLE5=I believe to my soul
TTITLE6=I don't know
EXTD=
EXTT0=
EXTT1=
EXTT2=
EXTT3=
EXTT4=
EXTT5=
EXTT6=
PLAYORDER=
